<svg xmlns="http://www.w3.org/2000/svg" viewBox="0 0 136.92 136.92"><title>grey_auto</title><g id="bd450ca4-d733-4c51-8858-cd20806cd4bb" data-name="Layer 1 copy 2"><path d="M52.62,69.12l.66-.66-.66-.66-.66.66Z" style="fill:#ffffff"/><path d="M68.46,49.32a.79.79,0,0,0,0-1.32A.79.79,0,0,0,68.46,49.32Z" style="fill:#ffffff"/><path d="M68.46,87.6a.79.79,0,0,0,0,1.32A.79.79,0,0,0,68.46,87.6Z" style="fill:#ffffff"/><path d="M68.46,49.32l-1.32,1.32L68.46,52l1.32-1.32Z" style="fill:#ffffff"/><path d="M68.46,87.6l1.32-1.32L68.46,85l-1.32,1.32Z" style="fill:#ffffff"/><path d="M69.12,84.3l-.66-.66-.66.66.66.66Z" style="fill:#ffffff"/><path d="M49.32,68.46l1.32,1.32L52,68.46l-1.32-1.32Z" style="fill:#ffffff"/><path d="M84.3,67.8l-.66.66.66.66.66-.66Z" style="fill:#ffffff"/><path d="M39.78,68.46,51,79.68c.92-.6,1.27-2,3.27-1.82C55.46,79.94,58.49,81,59.2,84l-2,2L68.46,97.14,79.68,85.92c-.6-.92-2-1.27-1.82-3.28,2.1-1.16,3.08-4.24,6.12-4.9l1.94,1.94L97.14,68.46,85.92,57.24c-.92.6-1.27,2-3.28,1.82C81.48,57,78.4,56,77.74,52.94L79.68,51,68.46,39.78,57.24,51c.6.92,2,1.27,1.82,3.27C57,55.46,56,58.49,53,59.2l-2-2ZM79.63,58l2,2-1,1c-1.13.11-1.45-.85-2-1.52C78.56,58.62,79.31,58.43,79.63,58Zm-.89,3.36L76.9,63.14,76,62.28c-.3-1.2,1-1.28,1.17-2C78.14,60.19,78.45,60.64,78.74,61.31Zm-3.37-.4c-1,0-1.2-.67-1.58-.9l1.87-1.88,1,.83C76.72,60.17,75.54,60.25,75.37,60.91ZM77,55.31l2,2-1,1c-1.13.11-1.45-.85-2-1.52C75.92,56,76.67,55.79,77,55.31Zm-12.49-6,1.32,1.32c.93-1-.26-1.38-.66-2l2-2L68.46,48l1.32-1.32,2,2c-.4.6-1.59.94-.66,2l1.32-1.32,2,2-1.9,1.9c-.63-1-.45-2.08-1.4-2.56l-2,2c.4.6,1.59.94.66,2l-1.32-1.32L67.14,54.6c-.93-1,.26-1.38.66-2l-2-2a2.14,2.14,0,0,0-1,2.25c-1.26.17-1.54-1.09-2.32-1.59ZM60.11,63.23l-1.87-1.87c.33-.41.6-.72.83-1,1.1.06,1.51.85,2,1.59C61.05,62.67,60.34,62.86,60.11,63.23ZM62.38,61c-1.2.3-1.28-1-2-1.17-.09-.93.36-1.23,1-1.53l1.83,1.84Zm-2.89-2.59c-.77.07-1-.68-1.44-1l2-2,1,1C61.12,57.52,60.16,57.84,59.49,58.39ZM56.85,61c-.77.07-1-.68-1.44-1l2-2,1,1C58.48,60.16,57.52,60.48,56.85,61ZM51.3,74.4l-2-2,1.32-1.32c-1-.93-1.38.26-2,.66l-2-2L48,68.46l-1.32-1.32,2-2c.6.4.94,1.59,2,.66L49.32,64.5l2-2,1.9,1.9c-1,.63-2.08.45-2.56,1.4l2,2c.6-.4.94-1.59,2-.66l-1.32,1.32,1.32,1.32c-1,.93-1.38-.26-2-.66l-2,2c.63.57,1.09,1.56,2.23.78C53.06,73.35,51.8,73.62,51.3,74.4Zm6,4.57-2-2,1-1c1.13-.11,1.45.85,2,1.52C58.36,78.3,57.61,78.49,57.29,79Zm.89-3.36L60,73.78l.86.86c.3,1.2-1,1.28-1.17,2C58.78,76.73,58.47,76.28,58.18,75.61Zm1.75,6-2-2,1-1c1.13-.11,1.45.85,2,1.52C61,80.94,60.25,81.13,59.93,81.61ZM61.85,76c.72,0,.91.68,1.28.91l-1.87,1.88-1-.84C60.32,76.85,61.11,76.45,61.85,76Zm5.6,3-1.26-1.26c-1.19-.1-1.33,1.6-2.53,1.52,0-1.1,1.25-1.31,1.53-2.21-.14-.74-.85-1-1.26-1.58l.79-.79c-.29-1.21-1.51-1.62-2-2.46-.81-.09-.95.49-1.32.73l-1.26-1.25c-1.2-.11-1.33,1.59-2.54,1.51,0-1.09,1.25-1.3,1.53-2.21-.14-.74-.85-1-1.26-1.57l-1-1,1-1,1.26-1.26c.1-1.19-1.6-1.33-1.52-2.53,1.1,0,1.31,1.25,2.21,1.53.74-.14,1-.85,1.58-1.26l.79.79c1.21-.29,1.62-1.51,2.46-2,.09-.81-.49-.95-.73-1.32l1.25-1.26c.11-1.2-1.59-1.33-1.51-2.54,1.09,0,1.3,1.25,2.21,1.53.74-.14,1-.85,1.57-1.26l1-1,1,1,1.26,1.26c1.19.1,1.33-1.6,2.53-1.52,0,1.1-1.24,1.32-1.54,2.18.15.77.86,1.07,1.27,1.61l-.78.78c.27,1.23,1.51,1.62,2,2.47.81.09,1-.49,1.32-.73l1.26,1.25c1.2.11,1.33-1.59,2.53-1.52,0,1.11-1.23,1.32-1.53,2.18.15.78.86,1.08,1.27,1.61l1,1-1,1-1.26,1.26c-.1,1.19,1.6,1.33,1.52,2.53-1.1,0-1.32-1.24-2.18-1.54-.77.15-1.07.86-1.61,1.27l-.78-.78c-1.23.27-1.62,1.51-2.47,2-.09.81.49,1,.73,1.32l-1.25,1.26c-.1,1.2,1.59,1.33,1.52,2.53-1.11,0-1.32-1.23-2.18-1.53-.78.15-1.08.86-1.61,1.27l-1,1Zm7.09-3.1c1.19-.3,1.26,1,2,1.16.09.94-.36,1.24-1,1.54L73.68,76.8Zm1.37-.67c0-1,.67-1.21.9-1.58l1.87,1.87c-.33.41-.6.72-.82,1C76.65,76.62,76.57,75.44,75.91,75.27ZM72.42,87.6,71.1,86.28c-.93,1,.26,1.38.66,2l-2,2-1.32-1.32-1.32,1.32-2-2c.4-.6,1.59-.94.66-2L64.5,87.6l-2-2,1.9-1.9c.63,1,.45,2.08,1.4,2.56l2-2c-.4-.6-1.59-.94-.66-2l1.32,1.32,1.32-1.32c.93,1-.26,1.38-.66,2l2,2c.57-.63,1.56-1.09.78-2.23,1.47-.19,1.74,1.07,2.52,1.57Zm5-9.07c.77-.07,1,.68,1.44,1l-2,2-1-1C75.8,79.4,76.76,79.08,77.43,78.53Zm2.64-2.64c.77-.07,1,.68,1.44,1l-2,2-1-1C78.44,76.76,79.4,76.44,80.07,75.89Zm8.19-4.13c-.6-.4-.94-1.59-2-.66l1.32,1.32-2,2-1.9-1.9c1-.63,2.08-.45,2.56-1.4l-2-2c-.6.4-.94,1.59-2,.66l1.32-1.32-1.32-1.32c1-.93,1.38.26,2,.66l2-2a2.14,2.14,0,0,0-2.25-1c-.17-1.26,1.09-1.54,1.59-2.32l2,2-1.32,1.32c1,.93,1.38-.26,2-.66l2,2-1.32,1.32,1.32,1.32Z" style="fill:#ffffff"/><path d="M87.6,68.46a.79.79,0,0,0,1.32,0A.79.79,0,0,0,87.6,68.46Z" style="fill:#ffffff"/><path d="M85,68.46l1.32,1.32,1.32-1.32-1.32-1.32Z" style="fill:#ffffff"/><path d="M67.8,52.62l.66.66.66-.66L68.46,52Z" style="fill:#ffffff"/><path d="M49.32,68.46a.79.79,0,0,0-1.32,0A.79.79,0,0,0,49.32,68.46Z" style="fill:#ffffff"/></g></svg>