<svg id="visual" viewBox="0 0 960 540" width="960" height="540" xmlns="http://www.w3.org/2000/svg" xmlns:xlink="http://www.w3.org/1999/xlink" version="1.1"><path d="M0 220L53.3 216C106.7 212 213.3 204 320 222.7C426.7 241.3 533.3 286.7 640 282.3C746.7 278 853.3 224 906.7 197L960 170L960 0L906.7 0C853.3 0 746.7 0 640 0C533.3 0 426.7 0 320 0C213.3 0 106.7 0 53.3 0L0 0Z" fill="#c6363a"></path><path d="M0 104L53.3 118C106.7 132 213.3 160 320 178.2C426.7 196.3 533.3 204.7 640 200.7C746.7 196.7 853.3 180.3 906.7 172.2L960 164L960 0L906.7 0C853.3 0 746.7 0 640 0C533.3 0 426.7 0 320 0C213.3 0 106.7 0 53.3 0L0 0Z" fill="#c02025"></path></svg>